<svg id="visual" viewBox="0 0 900 350" width="900" height="350" xmlns="http://www.w3.org/2000/svg" xmlns:xlink="http://www.w3.org/1999/xlink" version="1.1"><path d="M0 50L50 45.3C100 40.7 200 31.3 300 46.5C400 61.7 500 101.3 600 121.2C700 141 800 141 850 141L900 141L900 0L850 0C800 0 700 0 600 0C500 0 400 0 300 0C200 0 100 0 50 0L0 0Z" fill="#36b796"></path><path d="M0 288L50 272.8C100 257.7 200 227.3 300 226.2C400 225 500 253 600 268.2C700 283.3 800 285.7 850 286.8L900 288L900 139L850 139C800 139 700 139 600 119.2C500 99.3 400 59.7 300 44.5C200 29.3 100 38.7 50 43.3L0 48Z" fill="#009473"></path><path d="M0 351L50 351C100 351 200 351 300 351C400 351 500 351 600 351C700 351 800 351 850 351L900 351L900 286L850 284.8C800 283.7 700 281.3 600 266.2C500 251 400 223 300 224.2C200 225.3 100 255.7 50 270.8L0 286Z" fill="#006c55"></path></svg>